<mxfile host="app.diagrams.net" modified="2024-05-24T09:50:49.382Z" agent="Mozilla/5.0 (Windows NT 10.0; Win64; x64) AppleWebKit/537.36 (KHTML, like Gecko) Chrome/124.0.0.0 Safari/537.36" etag="izaXw3iFsRqlAx_qVn3F" version="24.4.6" type="github">
  <diagram name="Page-1" id="3ErjRlkNJSB68AwCrOnH">
    <mxGraphModel dx="992" dy="525" grid="1" gridSize="10" guides="1" tooltips="1" connect="1" arrows="1" fold="1" page="1" pageScale="1" pageWidth="827" pageHeight="1169" math="0" shadow="0">
      <root>
        <mxCell id="0" />
        <mxCell id="1" parent="0" />
        <mxCell id="sos5FgHXa9vijYc70lvK-3" value="" style="edgeStyle=orthogonalEdgeStyle;rounded=0;orthogonalLoop=1;jettySize=auto;html=1;" edge="1" parent="1" source="sos5FgHXa9vijYc70lvK-1" target="sos5FgHXa9vijYc70lvK-2">
          <mxGeometry relative="1" as="geometry" />
        </mxCell>
        <mxCell id="sos5FgHXa9vijYc70lvK-1" value="ASA" style="text;html=1;align=center;verticalAlign=middle;resizable=0;points=[];autosize=1;strokeColor=none;fillColor=none;" vertex="1" parent="1">
          <mxGeometry x="135" y="125" width="50" height="30" as="geometry" />
        </mxCell>
        <mxCell id="sos5FgHXa9vijYc70lvK-2" value="Azure SQL&lt;br&gt;Blob Storage&amp;nbsp;" style="whiteSpace=wrap;html=1;" vertex="1" parent="1">
          <mxGeometry x="230" y="110" width="120" height="60" as="geometry" />
        </mxCell>
        <mxCell id="sos5FgHXa9vijYc70lvK-4" value="ASA Alowed Storages" style="swimlane;fontStyle=0;childLayout=stackLayout;horizontal=1;startSize=30;horizontalStack=0;resizeParent=1;resizeParentMax=0;resizeLast=0;collapsible=1;marginBottom=0;whiteSpace=wrap;html=1;" vertex="1" parent="1">
          <mxGeometry x="120" y="240" width="140" height="120" as="geometry" />
        </mxCell>
        <mxCell id="sos5FgHXa9vijYc70lvK-5" value="Azure SQL - Yes" style="text;strokeColor=none;fillColor=none;align=left;verticalAlign=middle;spacingLeft=4;spacingRight=4;overflow=hidden;points=[[0,0.5],[1,0.5]];portConstraint=eastwest;rotatable=0;whiteSpace=wrap;html=1;" vertex="1" parent="sos5FgHXa9vijYc70lvK-4">
          <mxGeometry y="30" width="140" height="30" as="geometry" />
        </mxCell>
        <mxCell id="sos5FgHXa9vijYc70lvK-6" value="Blob Storage - Yes" style="text;strokeColor=none;fillColor=none;align=left;verticalAlign=middle;spacingLeft=4;spacingRight=4;overflow=hidden;points=[[0,0.5],[1,0.5]];portConstraint=eastwest;rotatable=0;whiteSpace=wrap;html=1;" vertex="1" parent="sos5FgHXa9vijYc70lvK-4">
          <mxGeometry y="60" width="140" height="30" as="geometry" />
        </mxCell>
        <mxCell id="sos5FgHXa9vijYc70lvK-7" value="Cosmos DB - No" style="text;strokeColor=none;fillColor=none;align=left;verticalAlign=middle;spacingLeft=4;spacingRight=4;overflow=hidden;points=[[0,0.5],[1,0.5]];portConstraint=eastwest;rotatable=0;whiteSpace=wrap;html=1;" vertex="1" parent="sos5FgHXa9vijYc70lvK-4">
          <mxGeometry y="90" width="140" height="30" as="geometry" />
        </mxCell>
        <mxCell id="sos5FgHXa9vijYc70lvK-8" value="Enable require protection to cusumer data in ASA - Enable Dynamic Data Masking DDM" style="text;html=1;align=center;verticalAlign=middle;resizable=0;points=[];autosize=1;strokeColor=none;fillColor=none;" vertex="1" parent="1">
          <mxGeometry x="95" y="410" width="490" height="30" as="geometry" />
        </mxCell>
        <mxCell id="sos5FgHXa9vijYc70lvK-9" value="Azure AD Functions" style="swimlane;fontStyle=0;childLayout=stackLayout;horizontal=1;startSize=30;horizontalStack=0;resizeParent=1;resizeParentMax=0;resizeLast=0;collapsible=1;marginBottom=0;whiteSpace=wrap;html=1;" vertex="1" parent="1">
          <mxGeometry x="100" y="510" width="560" height="480" as="geometry" />
        </mxCell>
        <mxCell id="sos5FgHXa9vijYc70lvK-10" value="Identitiy Management - Create User identites and credentials" style="text;strokeColor=none;fillColor=none;align=left;verticalAlign=middle;spacingLeft=4;spacingRight=4;overflow=hidden;points=[[0,0.5],[1,0.5]];portConstraint=eastwest;rotatable=0;whiteSpace=wrap;html=1;" vertex="1" parent="sos5FgHXa9vijYc70lvK-9">
          <mxGeometry y="30" width="560" height="30" as="geometry" />
        </mxCell>
        <mxCell id="sos5FgHXa9vijYc70lvK-11" value="Creat User Groups&lt;span style=&quot;white-space: pre;&quot;&gt;&#x9;&lt;/span&gt;" style="text;strokeColor=none;fillColor=none;align=left;verticalAlign=middle;spacingLeft=4;spacingRight=4;overflow=hidden;points=[[0,0.5],[1,0.5]];portConstraint=eastwest;rotatable=0;whiteSpace=wrap;html=1;" vertex="1" parent="sos5FgHXa9vijYc70lvK-9">
          <mxGeometry y="60" width="560" height="30" as="geometry" />
        </mxCell>
        <mxCell id="sos5FgHXa9vijYc70lvK-12" value="Access Management - SSO - Enable sign in once provide access to multiple apps without entering credentials" style="text;strokeColor=none;fillColor=none;align=left;verticalAlign=middle;spacingLeft=4;spacingRight=4;overflow=hidden;points=[[0,0.5],[1,0.5]];portConstraint=eastwest;rotatable=0;whiteSpace=wrap;html=1;" vertex="1" parent="sos5FgHXa9vijYc70lvK-9">
          <mxGeometry y="90" width="560" height="30" as="geometry" />
        </mxCell>
        <mxCell id="sos5FgHXa9vijYc70lvK-15" value="&lt;span style=&quot;color: rgb(13, 13, 13); white-space-collapse: preserve; background-color: rgb(255, 255, 255);&quot;&gt;&lt;font style=&quot;font-size: 12px;&quot; face=&quot;Helvetica&quot;&gt;Define policies that enforce access controls&lt;/font&gt;&lt;/span&gt;" style="text;strokeColor=none;fillColor=none;align=left;verticalAlign=middle;spacingLeft=4;spacingRight=4;overflow=hidden;points=[[0,0.5],[1,0.5]];portConstraint=eastwest;rotatable=0;whiteSpace=wrap;html=1;" vertex="1" parent="sos5FgHXa9vijYc70lvK-9">
          <mxGeometry y="120" width="560" height="30" as="geometry" />
        </mxCell>
        <mxCell id="sos5FgHXa9vijYc70lvK-14" value="&lt;font style=&quot;font-size: 12px;&quot; face=&quot;Helvetica&quot;&gt;&lt;span style=&quot;border: 0px solid rgb(227, 227, 227); box-sizing: border-box; --tw-border-spacing-x: 0; --tw-border-spacing-y: 0; --tw-translate-x: 0; --tw-translate-y: 0; --tw-rotate: 0; --tw-skew-x: 0; --tw-skew-y: 0; --tw-scale-x: 1; --tw-scale-y: 1; --tw-pan-x: ; --tw-pan-y: ; --tw-pinch-zoom: ; --tw-scroll-snap-strictness: proximity; --tw-gradient-from-position: ; --tw-gradient-via-position: ; --tw-gradient-to-position: ; --tw-ordinal: ; --tw-slashed-zero: ; --tw-numeric-figure: ; --tw-numeric-spacing: ; --tw-numeric-fraction: ; --tw-ring-inset: ; --tw-ring-offset-width: 0px; --tw-ring-offset-color: #fff; --tw-ring-color: rgba(69,89,164,.5); --tw-ring-offset-shadow: 0 0 transparent; --tw-ring-shadow: 0 0 transparent; --tw-shadow: 0 0 transparent; --tw-shadow-colored: 0 0 transparent; --tw-blur: ; --tw-brightness: ; --tw-contrast: ; --tw-grayscale: ; --tw-hue-rotate: ; --tw-invert: ; --tw-saturate: ; --tw-sepia: ; --tw-drop-shadow: ; --tw-backdrop-blur: ; --tw-backdrop-brightness: ; --tw-backdrop-contrast: ; --tw-backdrop-grayscale: ; --tw-backdrop-hue-rotate: ; --tw-backdrop-invert: ; --tw-backdrop-opacity: ; --tw-backdrop-saturate: ; --tw-backdrop-sepia: ; --tw-contain-size: ; --tw-contain-layout: ; --tw-contain-paint: ; --tw-contain-style: ; color: rgb(13, 13, 13); white-space-collapse: preserve; background-color: rgb(255, 255, 255);&quot;&gt;Multi-Factor Authentication (MFA)&lt;/span&gt;&lt;span style=&quot;color: rgb(13, 13, 13); white-space-collapse: preserve; background-color: rgb(255, 255, 255);&quot;&gt;:&lt;/span&gt;&lt;/font&gt;" style="text;strokeColor=none;fillColor=none;align=left;verticalAlign=middle;spacingLeft=4;spacingRight=4;overflow=hidden;points=[[0,0.5],[1,0.5]];portConstraint=eastwest;rotatable=0;whiteSpace=wrap;html=1;" vertex="1" parent="sos5FgHXa9vijYc70lvK-9">
          <mxGeometry y="150" width="560" height="30" as="geometry" />
        </mxCell>
        <mxCell id="sos5FgHXa9vijYc70lvK-13" value="&lt;span style=&quot;border: 0px solid rgb(227, 227, 227); box-sizing: border-box; --tw-border-spacing-x: 0; --tw-border-spacing-y: 0; --tw-translate-x: 0; --tw-translate-y: 0; --tw-rotate: 0; --tw-skew-x: 0; --tw-skew-y: 0; --tw-scale-x: 1; --tw-scale-y: 1; --tw-pan-x: ; --tw-pan-y: ; --tw-pinch-zoom: ; --tw-scroll-snap-strictness: proximity; --tw-gradient-from-position: ; --tw-gradient-via-position: ; --tw-gradient-to-position: ; --tw-ordinal: ; --tw-slashed-zero: ; --tw-numeric-figure: ; --tw-numeric-spacing: ; --tw-numeric-fraction: ; --tw-ring-inset: ; --tw-ring-offset-width: 0px; --tw-ring-offset-color: #fff; --tw-ring-color: rgba(69,89,164,.5); --tw-ring-offset-shadow: 0 0 transparent; --tw-ring-shadow: 0 0 transparent; --tw-shadow: 0 0 transparent; --tw-shadow-colored: 0 0 transparent; --tw-blur: ; --tw-brightness: ; --tw-contrast: ; --tw-grayscale: ; --tw-hue-rotate: ; --tw-invert: ; --tw-saturate: ; --tw-sepia: ; --tw-drop-shadow: ; --tw-backdrop-blur: ; --tw-backdrop-brightness: ; --tw-backdrop-contrast: ; --tw-backdrop-grayscale: ; --tw-backdrop-hue-rotate: ; --tw-backdrop-invert: ; --tw-backdrop-opacity: ; --tw-backdrop-saturate: ; --tw-backdrop-sepia: ; --tw-contain-size: ; --tw-contain-layout: ; --tw-contain-paint: ; --tw-contain-style: ; color: rgb(13, 13, 13); white-space-collapse: preserve; background-color: rgb(255, 255, 255);&quot;&gt;&lt;font style=&quot;font-size: 12px;&quot; face=&quot;Helvetica&quot;&gt;Passwordless Authentication&lt;/font&gt;&lt;/span&gt;" style="text;strokeColor=none;fillColor=none;align=left;verticalAlign=middle;spacingLeft=4;spacingRight=4;overflow=hidden;points=[[0,0.5],[1,0.5]];portConstraint=eastwest;rotatable=0;whiteSpace=wrap;html=1;" vertex="1" parent="sos5FgHXa9vijYc70lvK-9">
          <mxGeometry y="180" width="560" height="30" as="geometry" />
        </mxCell>
        <mxCell id="sos5FgHXa9vijYc70lvK-16" value="&lt;span style=&quot;color: rgb(13, 13, 13); white-space-collapse: preserve; background-color: rgb(255, 255, 255);&quot;&gt;&lt;font style=&quot;font-size: 12px;&quot; face=&quot;Helvetica&quot;&gt; Integrate thousands of SaaS applications&lt;/font&gt;&lt;/span&gt;" style="text;strokeColor=none;fillColor=none;align=left;verticalAlign=middle;spacingLeft=4;spacingRight=4;overflow=hidden;points=[[0,0.5],[1,0.5]];portConstraint=eastwest;rotatable=0;whiteSpace=wrap;html=1;" vertex="1" parent="sos5FgHXa9vijYc70lvK-9">
          <mxGeometry y="210" width="560" height="30" as="geometry" />
        </mxCell>
        <mxCell id="sos5FgHXa9vijYc70lvK-18" value="&lt;span style=&quot;color: rgb(13, 13, 13); white-space-collapse: preserve; background-color: rgb(255, 255, 255);&quot;&gt;&lt;font style=&quot;font-size: 12px;&quot; face=&quot;Helvetica&quot;&gt;Register and manage custom applications&lt;/font&gt;&lt;/span&gt;" style="text;strokeColor=none;fillColor=none;align=left;verticalAlign=middle;spacingLeft=4;spacingRight=4;overflow=hidden;points=[[0,0.5],[1,0.5]];portConstraint=eastwest;rotatable=0;whiteSpace=wrap;html=1;" vertex="1" parent="sos5FgHXa9vijYc70lvK-9">
          <mxGeometry y="240" width="560" height="30" as="geometry" />
        </mxCell>
        <mxCell id="sos5FgHXa9vijYc70lvK-17" value="&lt;span style=&quot;color: rgb(13, 13, 13); white-space-collapse: preserve; background-color: rgb(255, 255, 255);&quot;&gt;&lt;font style=&quot;font-size: 12px;&quot;&gt;Detect and remediate identity-based risks using machine learning and behavioral analytics.&lt;/font&gt;&lt;/span&gt;" style="text;strokeColor=none;fillColor=none;align=left;verticalAlign=middle;spacingLeft=4;spacingRight=4;overflow=hidden;points=[[0,0.5],[1,0.5]];portConstraint=eastwest;rotatable=0;whiteSpace=wrap;html=1;" vertex="1" parent="sos5FgHXa9vijYc70lvK-9">
          <mxGeometry y="270" width="560" height="40" as="geometry" />
        </mxCell>
        <mxCell id="sos5FgHXa9vijYc70lvK-19" value="&lt;font style=&quot;font-size: 12px;&quot; face=&quot;Helvetica&quot;&gt;&lt;span style=&quot;border: 0px solid rgb(227, 227, 227); box-sizing: border-box; --tw-border-spacing-x: 0; --tw-border-spacing-y: 0; --tw-translate-x: 0; --tw-translate-y: 0; --tw-rotate: 0; --tw-skew-x: 0; --tw-skew-y: 0; --tw-scale-x: 1; --tw-scale-y: 1; --tw-pan-x: ; --tw-pan-y: ; --tw-pinch-zoom: ; --tw-scroll-snap-strictness: proximity; --tw-gradient-from-position: ; --tw-gradient-via-position: ; --tw-gradient-to-position: ; --tw-ordinal: ; --tw-slashed-zero: ; --tw-numeric-figure: ; --tw-numeric-spacing: ; --tw-numeric-fraction: ; --tw-ring-inset: ; --tw-ring-offset-width: 0px; --tw-ring-offset-color: #fff; --tw-ring-color: rgba(69,89,164,.5); --tw-ring-offset-shadow: 0 0 transparent; --tw-ring-shadow: 0 0 transparent; --tw-shadow: 0 0 transparent; --tw-shadow-colored: 0 0 transparent; --tw-blur: ; --tw-brightness: ; --tw-contrast: ; --tw-grayscale: ; --tw-hue-rotate: ; --tw-invert: ; --tw-saturate: ; --tw-sepia: ; --tw-drop-shadow: ; --tw-backdrop-blur: ; --tw-backdrop-brightness: ; --tw-backdrop-contrast: ; --tw-backdrop-grayscale: ; --tw-backdrop-hue-rotate: ; --tw-backdrop-invert: ; --tw-backdrop-opacity: ; --tw-backdrop-saturate: ; --tw-backdrop-sepia: ; --tw-contain-size: ; --tw-contain-layout: ; --tw-contain-paint: ; --tw-contain-style: ; font-weight: 600; color: rgb(13, 13, 13); white-space-collapse: preserve; background-color: rgb(255, 255, 255);&quot;&gt;Privileged Identity Management (PIM)&lt;/span&gt;&lt;span style=&quot;color: rgb(13, 13, 13); white-space-collapse: preserve; background-color: rgb(255, 255, 255);&quot;&gt;: Manage, control, and monitor access within Azure AD and other Microsoft online services&lt;/span&gt;&lt;/font&gt;" style="text;strokeColor=none;fillColor=none;align=left;verticalAlign=middle;spacingLeft=4;spacingRight=4;overflow=hidden;points=[[0,0.5],[1,0.5]];portConstraint=eastwest;rotatable=0;whiteSpace=wrap;html=1;" vertex="1" parent="sos5FgHXa9vijYc70lvK-9">
          <mxGeometry y="310" width="560" height="40" as="geometry" />
        </mxCell>
        <mxCell id="sos5FgHXa9vijYc70lvK-20" value="&lt;div&gt;&lt;font color=&quot;#0d0d0d&quot;&gt;&lt;span style=&quot;white-space-collapse: preserve;&quot;&gt;&lt;font style=&quot;font-size: 12px;&quot; face=&quot;Helvetica&quot;&gt;Azure AD Connect: Synchronize on-premises directories (like Windows Server Active Directory) with Azure AD for a hybrid identity solution.&lt;/font&gt;&lt;/span&gt;&lt;b style=&quot;white-space-collapse: preserve;&quot;&gt;&lt;br&gt;&lt;/b&gt;&lt;/font&gt;&lt;/div&gt;" style="text;strokeColor=none;fillColor=none;align=left;verticalAlign=middle;spacingLeft=4;spacingRight=4;overflow=hidden;points=[[0,0.5],[1,0.5]];portConstraint=eastwest;rotatable=0;whiteSpace=wrap;html=1;" vertex="1" parent="sos5FgHXa9vijYc70lvK-9">
          <mxGeometry y="350" width="560" height="40" as="geometry" />
        </mxCell>
        <mxCell id="sos5FgHXa9vijYc70lvK-21" value="Azure AD B2B: Collaborate securely with external partners by providing them with access to your resources." style="text;whiteSpace=wrap;" vertex="1" parent="sos5FgHXa9vijYc70lvK-9">
          <mxGeometry y="390" width="560" height="50" as="geometry" />
        </mxCell>
        <mxCell id="sos5FgHXa9vijYc70lvK-22" value="Azure AD B2C: Build identity management into your applications for customer-facing experiences." style="text;whiteSpace=wrap;" vertex="1" parent="sos5FgHXa9vijYc70lvK-9">
          <mxGeometry y="440" width="560" height="40" as="geometry" />
        </mxCell>
      </root>
    </mxGraphModel>
  </diagram>
</mxfile>
